P3
3 3
255
255
50
50
50
255
50
50
50
255
150
150
150
119
71
61
118
55
52
50
50
50
255
161
185
255
255
255
