P3
3 3
255
0
0
0
255
255
255
0
0
0
100
100
100
21
21
21
5
5
5
0
0
0
111
111
111
255
255
255
