P3
3 3
255
0
0
0
0
0
0
255
255
255
100
100
100
11
11
11
2
2
2
0
0
0
135
135
135
255
255
255
