P3
3 3
255
80
45
13
51
72
39
12
33
64
80
50
34
100
80
64
72
58
74
47
27
30
111
68
73
106
79
81
