P3
3 3
255
255
61
0
92
255
75
0
25
213
201
164
72
255
202
197
165
153
153
30
0
0
255
174
195
255
244
247
