P3
3 3
255
255
255
255
0
0
0
0
0
0
100
100
100
69
69
69
68
68
68
0
0
0
243
243
243
255
255
255
