P3
3 3
255
205
0
0
0
205
0
0
0
205
50
50
50
19
0
0
18
0
0
0
0
0
193
61
85
205
205
205
