P3
3 3
255
0
0
255
0
255
0
255
0
0
68
5
2
69
21
11
100
100
100
255
255
255
243
111
135
0
0
0
