P3
3 3
255
0
0
0
243
111
135
255
255
255
100
100
100
69
21
11
68
5
2
255
0
0
0
255
0
0
0
255
